<svg width="161" height="36" viewBox="0 0 161 36" fill="none" xmlns="http://www.w3.org/2000/svg">
<path d="M15.3281 0.0234375C17.6953 0.0234375 19.8047 0.46875 21.6562 1.33594C23.5312 2.20312 25.0078 3.30469 26.1094 4.61719C27.1875 5.95312 27.75 7.3125 27.7734 8.69531C27.7031 10.1484 27.1641 11.1562 26.1328 11.7422C25.125 12.3047 24.0938 12.3281 23.0625 11.8125C22.0312 11.2969 21.4688 10.1719 21.3516 8.39062C21.3281 7.21875 20.9766 6.14062 20.3203 5.17969C19.6641 4.19531 18.7734 3.49219 17.6719 3.07031C16.5703 2.67188 15.3281 2.69531 13.9922 3.16406C12.2344 3.91406 10.8516 5.36719 9.84375 7.5C8.83594 9.65625 8.25 12.0234 8.0625 14.625C7.875 17.2266 8.13281 19.5469 8.83594 21.6328C9.375 23.1797 10.1484 24.6797 11.2031 26.1328C12.2578 27.5625 13.5703 28.6641 15.1172 29.4375C16.6641 30.2109 18.4688 30.375 20.5312 29.9062V26.4375C20.5078 25.2188 20.3438 24.3516 19.9922 23.8359C19.6406 23.3203 19.2656 22.9219 18.8672 22.6641C18.5625 22.4531 18.3281 22.2422 18.1406 21.9844C17.9531 21.75 17.8594 21.3984 17.8594 20.9531C17.8359 20.625 17.9766 20.3672 18.2344 20.1797C18.4922 20.0156 19.0078 19.9219 19.7578 19.9219H29.1562C29.9062 19.9219 30.4219 20.0156 30.6797 20.1797C30.9609 20.3672 31.0781 20.625 31.0547 20.9531C31.0781 21.3984 30.9609 21.75 30.7734 21.9844C30.5859 22.2422 30.3516 22.4531 30.0703 22.6641C29.7422 22.875 29.4375 23.1562 29.1562 23.5078C28.875 23.8359 28.6406 24.3516 28.5 25.0312L28.3828 28.6172C28.4062 29.8125 28.5703 30.6797 28.9219 31.2188C29.2734 31.7344 29.6484 32.1328 30.0703 32.3906C30.3516 32.5781 30.5859 32.8125 30.7734 33.0469C30.9609 33.3047 31.0781 33.6562 31.0547 34.1016C31.0781 34.4297 30.9609 34.6641 30.6797 34.8516C30.4219 35.0391 29.9062 35.1094 29.1562 35.1094C27.9844 35.2031 26.9062 35.0625 25.8984 34.6875C24.8906 34.3359 23.9766 33.6562 23.1328 32.6719C22.4531 33.2344 21.3984 33.7734 19.9219 34.2891C18.4453 34.8281 16.9219 35.1094 15.3281 35.1094C12.5156 35.1094 9.9375 34.3359 7.64062 32.7422C5.32031 31.1719 3.46875 29.0625 2.08594 26.3906C0.726562 23.7422 0.0234375 20.7891 0.0234375 17.5781C0 14.4609 0.609375 11.5312 1.82812 8.74219C3.04688 5.97656 4.85156 3.82031 7.26562 2.29688C9.65625 0.773438 12.3516 0 15.3281 0.0234375ZM48.2812 11.4844C46.4531 11.1094 44.4375 11.8828 44.1328 14.9531C43.7812 18.5625 39.1875 19.4062 37.2656 17.2266C36.6797 16.5703 36.3281 15.6562 36.3984 14.4609C36.5625 12.0469 39.0234 10.1719 42.2344 9.21094C44.0391 8.67188 46.0781 8.41406 48.0938 8.48438C51.1172 8.625 54.0469 9.53906 56.0156 11.4375C57.5156 12.8438 58.4531 14.8359 58.4531 17.4609C58.4531 24.9844 58.4531 21.6797 58.4531 29.1094C58.4531 31.2188 59.9766 31.8047 60.8438 31.5469C61.8516 31.2422 60.8906 35.1562 55.4297 35.2266C54.6328 35.2266 53.9062 35.1094 53.2734 34.8984C51.5391 34.3125 50.4844 32.9531 50.4375 31.5234C48.3281 34.0781 43.1016 35.9766 39.1875 34.6875C37.0078 33.9375 35.0156 31.7812 34.6172 29.1328C34.3594 27.3281 34.8281 25.3359 36.5156 23.4141C37.1719 22.6875 37.9453 22.0547 38.7891 21.5156C43.3828 18.5625 50.2031 17.9531 50.5078 15.1172C50.6953 13.1484 49.6641 11.7422 48.2812 11.4844ZM50.5312 18.9375C50.5312 18.9375 42.0469 23.4609 43.1953 28.1484C43.9688 31.3828 48.6797 31.4062 50.4141 29.1797L50.5312 18.9375ZM71.2734 2.41406C71.5078 2.4375 71.7188 2.53125 71.9062 2.74219C72.0938 2.95312 72.1875 3.16406 72.1875 3.39844V8.78906H74.8828C75.4688 8.83594 75.8438 9.07031 76.0078 9.49219C76.1719 9.91406 76.1484 10.3359 75.9375 10.7812C75.75 11.2266 75.3984 11.4375 74.8828 11.4375H72.1875C72.1875 14.3672 72.1875 16.7812 72.1875 18.7031C72.1875 19.9453 72.1875 21.3516 72.1875 22.8984C72.2109 25.2188 72.2344 27 72.3047 28.2656C72.3516 29.5078 72.4453 30.4219 72.5391 30.9844C72.6562 31.5469 73.1484 31.6406 74.0391 31.2422C74.9062 30.8438 75.4453 30.7734 75.6094 30.9844C75.7734 31.2188 75.7969 31.4766 75.6797 31.7578C74.9062 33.2344 73.6172 34.2656 71.8359 34.7812C70.0547 35.3203 68.3906 35.1562 66.8203 34.2656C65.25 33.375 64.4297 31.5469 64.3125 28.7812C64.3125 27.0469 64.3125 25.3359 64.3125 23.625C64.3125 23.0391 64.3125 22.4531 64.3125 21.8906C64.3125 18.3984 64.3125 14.9062 64.3125 11.4375H62.625C61.9453 11.4141 61.5234 11.2266 61.3125 10.8281C61.125 10.4531 61.125 10.0781 61.2891 9.70312C61.4766 9.32812 61.8281 9.09375 62.3438 9C62.8828 8.92969 63.7969 8.46094 65.1328 7.64062C66.4453 6.82031 67.6172 5.74219 68.6484 4.38281C69.6562 3.02344 70.5469 2.36719 71.2734 2.41406ZM85.875 0.960938C86.3672 0.445312 86.9062 0.164062 87.4922 0.117188C88.0781 0.0703125 88.4062 0.421875 88.4297 1.19531C88.4297 1.54688 88.4297 1.92188 88.4297 2.27344C88.3594 5.625 88.3359 8.95312 88.3359 12.3047C89.1328 11.2969 90.1406 10.4766 91.3594 9.79688C92.5781 9.14062 93.7969 8.78906 94.9922 8.76562C97.8047 8.78906 99.9844 9.39844 101.555 10.5703C103.125 11.7422 104.227 13.3125 104.859 15.2812C105.492 17.2734 105.797 19.4766 105.797 21.9375L105.844 28.5703C105.867 29.7891 106.055 30.6562 106.383 31.1953C106.734 31.7109 107.109 32.1094 107.531 32.3672C107.812 32.5547 108.047 32.7891 108.258 33.0234C108.445 33.2812 108.539 33.6328 108.539 34.0781C108.539 34.4062 108.422 34.6641 108.164 34.8281C107.906 35.0156 107.391 35.1094 106.617 35.1094H97.1953C96.4453 35.1094 95.9297 35.0156 95.6719 34.8516C95.4141 34.6641 95.2734 34.4062 95.2969 34.0781C95.2734 33.6328 95.3906 33.2812 95.5781 33.0234C95.7656 32.7891 96 32.5547 96.3047 32.3672C96.7031 32.1094 97.0781 31.7109 97.4297 31.1953C97.7812 30.6562 97.9688 29.7891 97.9688 28.5703L97.9219 22.0078C97.9219 20.0859 97.8281 18.3281 97.6875 16.7344C97.5234 15.1406 97.1719 13.875 96.6328 12.9375C96.0938 11.9766 95.25 11.5078 94.1016 11.5078C92.2969 11.5078 90.8906 12.5156 89.8594 14.5312C88.8516 16.5703 88.3359 19.1484 88.3359 22.2656V28.5703C88.3594 29.7891 88.5469 30.6562 88.8984 31.1953C89.2266 31.7109 89.625 32.1094 90.0234 32.3672C90.3047 32.5547 90.5391 32.7891 90.75 33.0234C90.9375 33.2812 91.0312 33.6328 91.0312 34.0781C91.0312 34.4062 90.9141 34.6641 90.6562 34.8281C90.375 35.0156 89.8828 35.1094 89.1094 35.1094H79.6875C78.9375 35.1094 78.4219 35.0156 78.1641 34.8281C77.9062 34.6641 77.7656 34.4062 77.7891 34.0781C77.7891 33.6328 77.8828 33.2812 78.0703 33.0234C78.2578 32.7891 78.5156 32.5547 78.7969 32.3672C79.1953 32.1094 79.5703 31.7109 79.9219 31.1953C80.2734 30.6562 80.4609 29.7891 80.4609 28.5703V11.0391C80.4375 9.84375 80.25 8.97656 79.9219 8.4375C79.5703 7.92188 79.1953 7.52344 78.7734 7.26562C78.4922 7.05469 78.2578 6.84375 78.0703 6.58594C77.8828 6.35156 77.7891 6 77.7891 5.55469C77.8359 5.10938 78.2344 4.71094 78.9375 4.35938C79.6406 4.00781 80.4609 3.65625 81.4453 3.32812C82.3594 3.02344 83.2266 2.67188 84.0469 2.29688C84.8672 1.92188 85.4766 1.47656 85.875 0.960938ZM123.633 8.76562C126.773 8.83594 129.234 9.58594 130.992 11.0391C132.773 12.4922 133.688 14.3438 133.711 16.5469C133.641 18.5859 132.75 20.2266 131.016 21.4922C129.305 22.7344 127.289 23.6953 124.992 24.375C122.672 25.0547 120.586 25.5469 118.688 25.8516C119.531 27.4922 120.703 28.7812 122.203 29.6719C123.703 30.5859 125.344 30.9609 127.102 30.8438C128.836 30.7031 130.5 29.9297 132.047 28.4766C132.797 27.7734 133.5 27.6562 134.109 28.1484C134.719 28.6172 134.836 29.1797 134.438 29.8125C133.336 31.5703 131.742 32.9062 129.609 33.8203C127.477 34.7578 125.203 35.1797 122.812 35.1328C120.398 35.0859 118.242 34.4766 116.32 33.3047C114.844 32.4375 113.414 31.0547 112.055 29.1328C110.672 27.2344 109.969 24.8438 109.922 21.9609C109.969 19.1953 110.648 16.8281 111.984 14.8594C113.297 12.8906 115.008 11.3672 117.07 10.3359C119.133 9.28125 121.312 8.76562 123.633 8.76562ZM122.531 11.625C121.406 11.5312 120.281 12.3516 119.18 14.0391C118.453 15.3984 117.984 16.9922 117.773 18.7734C117.586 20.5781 117.633 22.2422 117.961 23.7422C117.961 23.7656 117.961 23.7656 117.961 23.7656C117.961 23.7656 117.961 23.7891 117.984 23.7891C118.594 23.5312 119.438 23.1328 120.516 22.6172C121.594 22.0781 122.508 21.5156 123.234 20.9297C124.664 19.6641 125.461 18.3047 125.648 16.8984C125.859 15.4688 125.648 14.2734 125.016 13.2422C124.406 12.2344 123.562 11.6953 122.531 11.625ZM144.281 9.60938C144.586 9.25781 144.914 9 145.336 8.83594C145.734 8.67188 146.086 8.67188 146.391 8.8125C146.695 8.95312 146.859 9.30469 146.859 9.84375C146.836 10.0781 146.836 10.4766 146.836 11.0391C146.836 11.6016 146.836 12.2109 146.836 12.8672C146.812 13.5 146.812 14.1094 146.812 14.6484C146.812 15.1875 146.812 15.5625 146.812 15.8203C146.859 15.7266 146.906 15.6562 146.953 15.5625C147.398 14.8359 148.031 13.9453 148.852 12.8906C149.648 11.8359 150.656 10.875 151.828 10.0547C153 9.21094 154.336 8.76562 155.859 8.71875C157.617 8.76562 158.812 9.23438 159.469 10.125C160.125 11.0391 160.406 12.1406 160.312 13.4531C160.219 14.7656 159.656 15.7031 158.648 16.2656C157.617 16.8281 156.445 16.9688 155.156 16.6875C152.648 16.1016 150.773 16.3125 149.578 17.3672C148.359 18.3984 147.586 19.7109 147.211 21.3281C146.859 22.9219 146.695 24.2578 146.742 25.3359V26.5781V28.5703C146.766 29.7891 146.953 30.6562 147.305 31.1953C147.633 31.7109 148.031 32.1094 148.43 32.3672C148.711 32.5547 148.945 32.7891 149.156 33.0469C149.344 33.2812 149.438 33.6328 149.438 34.0781C149.438 34.4062 149.32 34.6641 149.062 34.8516C148.781 35.0156 148.289 35.1094 147.516 35.1094H138.094C137.344 35.1094 136.828 35.0156 136.57 34.8516C136.312 34.6641 136.172 34.4062 136.195 34.0781C136.195 33.6328 136.289 33.2812 136.477 33.0469C136.664 32.7891 136.922 32.5547 137.203 32.3672C137.602 32.1094 137.977 31.7109 138.328 31.1953C138.68 30.6562 138.867 29.7891 138.867 28.5703V19.6875C138.844 18.4688 138.656 17.6016 138.328 17.0859C137.977 16.5469 137.602 16.1719 137.18 15.9141C136.898 15.7031 136.664 15.4688 136.477 15.2344C136.289 14.9766 136.195 14.6484 136.195 14.1797C136.242 13.7344 136.641 13.3359 137.344 12.9844C138.047 12.6328 138.867 12.3047 139.852 11.9766C140.766 11.6484 141.633 11.2969 142.453 10.9219C143.273 10.5469 143.883 10.125 144.281 9.60938Z" fill="#171616" fill-opacity="0.92"/>
</svg>
